<?xml version="1.0" encoding="UTF-8" ?>
<!DOCTYPE svg PUBLIC "-//W3C//DTD SVG 1.1//EN" "http://www.w3.org/Graphics/SVG/1.1/DTD/svg11.dtd">
<svg width="802pt" height="99pt" viewBox="0 0 802 99" version="1.1" xmlns="http://www.w3.org/2000/svg">
<g id="#6d6d6cff">
<path fill="#6d6d6c" opacity="1.00" d=" M 448.09 1.79 C 454.44 1.17 460.86 1.52 467.24 1.68 C 467.47 7.20 467.50 12.73 467.24 18.26 C 460.49 18.49 453.74 18.63 447.00 18.22 C 447.19 12.96 446.40 7.60 447.46 2.41 L 448.09 1.79 Z" />
<path fill="#6d6d6c" opacity="1.00" d=" M 628.77 1.68 C 635.29 1.38 641.82 1.43 648.34 1.70 C 648.61 7.21 648.61 12.73 648.32 18.24 C 641.81 18.40 635.29 18.77 628.78 18.29 C 628.44 12.76 628.49 7.21 628.77 1.68 Z" />
<path fill="#6d6d6c" opacity="1.00" d=" M 78.38 3.49 C 79.57 3.27 80.76 3.16 81.97 3.14 C 133.98 3.18 185.99 3.14 238.00 3.15 C 243.68 3.24 249.71 2.33 254.96 5.07 C 264.59 8.85 272.19 17.69 274.03 27.92 C 275.48 34.86 274.62 41.98 274.82 49.00 C 274.60 57.74 275.76 66.74 273.11 75.23 C 270.51 81.90 266.29 88.31 259.87 91.83 C 254.43 94.84 248.29 96.78 242.04 96.85 C 188.70 96.80 135.35 96.86 82.01 96.81 C 76.28 97.00 70.58 91.98 71.14 86.04 C 71.22 61.36 71.14 36.67 71.17 11.99 C 70.97 7.84 74.35 4.10 78.38 3.49 M 81.07 8.16 C 81.16 10.53 80.80 13.03 81.65 15.30 C 82.58 16.77 84.40 16.92 85.97 16.95 C 137.64 16.80 189.32 16.93 241.00 16.90 C 246.30 16.90 251.85 16.94 256.71 19.34 C 260.44 21.04 262.79 24.56 265.47 27.49 C 265.83 22.49 263.82 17.28 259.95 14.04 C 255.21 9.48 248.41 7.96 242.02 7.89 C 188.37 8.42 134.72 7.85 81.07 8.16 M 72.76 67.80 C 72.06 72.53 72.55 77.31 72.72 82.06 C 72.78 85.94 75.10 89.80 78.41 91.77 C 82.51 92.85 86.81 92.24 91.00 92.34 C 142.68 92.34 194.36 92.30 246.04 92.35 C 251.88 92.21 257.22 89.22 261.88 85.93 C 266.87 81.28 270.01 74.63 270.46 67.82 C 253.98 67.47 237.48 67.76 221.00 67.67 C 171.59 67.76 122.17 67.49 72.76 67.80 Z" />
<path fill="#6d6d6c" opacity="1.00" d=" M 30.62 65.01 C 30.75 62.63 30.22 59.92 31.81 57.90 C 31.82 62.30 31.84 66.70 31.82 71.11 C 30.39 69.40 30.72 67.07 30.62 65.01 Z" />
</g>
<g id="#4d4d4cff">
<path fill="#4d4d4c" opacity="1.00" d=" M 480.77 2.74 C 487.26 2.71 493.87 1.00 500.26 2.77 C 500.51 30.84 500.18 58.93 500.38 87.01 C 500.40 90.39 500.29 93.77 500.17 97.16 C 493.69 97.43 487.21 97.44 480.74 97.16 C 480.37 79.11 480.70 61.05 480.61 43.00 C 480.74 29.58 480.41 16.16 480.77 2.74 Z" />
<path fill="#4d4d4c" opacity="1.00" d=" M 733.35 2.40 C 739.55 1.32 745.95 2.24 752.24 1.98 C 752.62 19.26 752.36 36.55 752.30 53.84 C 754.05 53.73 755.81 53.65 757.59 53.63 C 762.96 44.67 770.58 37.37 776.93 29.12 L 777.75 29.18 C 784.26 29.77 790.81 29.51 797.35 29.52 C 797.52 30.14 797.87 31.39 798.05 32.01 C 791.11 39.77 784.83 48.10 777.83 55.81 C 776.80 57.30 774.23 59.16 776.00 61.04 C 779.41 65.90 782.62 70.92 786.39 75.53 C 790.14 80.25 793.07 85.56 796.84 90.27 C 798.60 92.41 800.13 94.72 801.58 97.07 C 794.14 97.28 786.63 97.73 779.21 96.98 C 775.88 93.46 773.52 89.16 770.60 85.32 C 767.18 80.71 764.78 75.29 760.61 71.28 C 757.15 71.37 754.79 75.10 752.71 77.56 C 751.86 84.04 752.85 90.64 752.24 97.16 C 745.76 97.43 739.28 97.44 732.81 97.17 C 732.37 67.45 732.84 37.70 732.61 7.97 C 732.74 6.13 732.39 4.08 733.35 2.40 Z" />
<path fill="#4d4d4c" opacity="1.00" d=" M 326.99 5.82 C 333.42 5.30 340.01 4.12 346.39 5.76 C 346.56 13.17 346.42 20.59 346.33 28.01 C 352.28 28.55 358.35 27.09 364.18 28.80 C 364.39 33.84 364.49 38.90 364.03 43.93 C 358.12 44.13 352.21 43.93 346.30 44.19 C 346.52 53.80 346.44 63.42 346.42 73.04 C 346.47 75.99 346.91 79.56 349.57 81.34 C 354.14 83.56 359.34 82.10 364.14 81.71 C 364.52 86.49 364.37 91.29 364.42 96.09 C 359.70 98.48 354.17 98.52 348.98 98.40 C 342.46 98.11 335.48 95.99 331.20 90.77 C 327.55 86.44 326.77 80.50 326.73 75.02 C 326.75 64.73 326.92 54.44 326.77 44.14 C 322.88 44.19 318.99 43.98 315.10 43.87 C 314.54 38.63 314.46 33.37 315.08 28.14 C 318.99 28.02 322.90 27.81 326.82 27.86 C 327.05 20.52 326.87 13.17 326.99 5.82 Z" />
<path fill="#4d4d4c" opacity="1.00" d=" M 583.78 5.72 C 590.20 5.42 596.64 5.39 603.06 5.76 C 603.38 13.12 603.21 20.49 603.23 27.85 C 609.12 28.07 615.01 27.82 620.90 28.14 C 621.41 33.37 621.40 38.63 620.88 43.86 C 615.00 44.19 609.11 43.93 603.23 44.13 C 603.37 54.11 603.21 64.09 603.28 74.08 C 603.23 76.95 604.04 80.65 607.19 81.58 C 611.77 82.62 616.51 81.76 621.15 81.62 C 621.43 86.46 621.41 91.31 621.23 96.15 C 613.53 98.75 605.05 99.20 597.18 97.10 C 589.35 94.80 583.76 87.13 583.62 79.02 C 583.55 67.42 583.56 55.80 583.68 44.20 C 579.73 44.12 575.77 43.97 571.82 44.02 C 571.95 38.91 570.69 33.32 572.45 28.51 C 576.01 27.37 579.98 28.14 583.71 27.83 C 583.62 20.46 583.45 13.09 583.78 5.72 Z" />
<path fill="#4d4d4c" opacity="1.00" d=" M 373.19 38.91 C 380.97 31.09 392.23 27.60 403.04 27.00 C 410.89 26.70 419.08 27.96 425.96 31.94 C 432.55 35.90 435.25 43.86 435.92 51.14 C 436.23 57.75 435.91 64.38 436.02 71.00 C 436.17 79.70 435.45 88.47 437.08 97.08 C 432.04 97.24 427.00 97.54 421.96 97.24 C 418.53 97.60 418.26 93.32 417.23 91.02 C 413.26 93.31 409.72 96.54 405.10 97.43 C 396.68 99.30 387.29 98.90 379.73 94.42 C 368.05 88.30 367.31 69.40 377.82 61.82 C 384.81 56.89 393.65 55.72 402.01 55.69 C 405.93 55.57 410.02 56.09 413.78 54.68 C 416.00 53.84 416.01 50.97 415.99 48.98 C 416.16 45.74 413.02 43.73 410.29 42.91 C 401.41 40.82 391.30 42.70 384.90 49.55 C 380.99 46.00 377.07 42.48 373.19 38.91 M 399.96 68.43 C 396.32 68.52 392.49 70.27 390.68 73.54 C 389.94 76.24 389.86 79.76 392.36 81.61 C 395.48 84.52 400.11 84.31 404.07 83.90 C 408.53 83.39 412.38 80.51 415.04 77.01 C 417.17 74.25 416.53 70.56 416.71 67.31 C 411.23 68.76 405.55 68.27 399.96 68.43 Z" />
<path fill="#4d4d4c" opacity="1.00" d=" M 521.40 31.29 C 536.40 23.70 556.48 25.77 568.43 38.06 C 564.70 41.29 561.18 44.83 556.96 47.42 C 552.58 45.90 548.97 42.25 544.13 42.11 C 540.22 41.96 536.21 41.71 532.38 42.69 C 529.38 43.26 528.71 47.03 529.48 49.52 C 531.33 52.82 535.46 53.24 538.78 54.05 C 547.93 56.15 558.06 57.12 565.45 63.52 C 573.16 70.97 571.78 85.07 563.15 91.25 C 552.78 99.10 538.65 99.92 526.38 96.90 C 518.63 94.32 510.44 90.49 506.20 83.12 C 511.32 80.23 516.40 77.25 521.81 74.90 C 527.73 82.59 538.91 85.68 547.82 81.72 C 550.53 80.62 552.74 77.62 551.36 74.67 C 548.28 70.93 543.14 70.42 538.72 69.43 C 531.68 68.17 524.66 66.26 518.40 62.72 C 513.16 59.81 510.07 53.86 509.78 47.99 C 510.38 40.91 514.98 34.36 521.40 31.29 Z" />
<path fill="#4d4d4c" opacity="1.00" d=" M 660.92 45.10 C 667.34 32.99 681.58 26.20 695.02 26.95 C 702.53 27.36 710.27 29.06 716.49 33.49 C 720.06 36.17 723.55 39.48 724.71 43.95 C 719.61 46.06 714.66 48.50 709.77 51.06 C 706.74 48.19 703.80 44.71 699.58 43.66 C 692.81 42.16 684.77 43.58 680.27 49.25 C 676.22 54.66 675.49 61.95 676.82 68.42 C 677.72 73.18 680.52 77.67 684.74 80.16 C 689.45 83.12 695.51 83.40 700.72 81.66 C 704.63 80.35 707.19 76.92 709.90 74.03 C 714.94 76.51 720.15 78.69 724.82 81.87 C 719.68 90.46 710.53 96.04 700.85 98.00 C 691.15 99.37 680.71 98.20 672.41 92.65 C 665.07 88.48 660.25 80.98 657.67 73.11 C 655.42 63.82 656.06 53.51 660.92 45.10 Z" />
<path fill="#4d4d4c" opacity="1.00" d=" M 447.52 28.75 C 453.94 27.35 460.78 27.55 467.23 28.78 C 467.43 51.57 467.50 74.37 467.19 97.15 C 460.70 97.42 454.21 97.42 447.72 97.12 C 447.30 74.33 447.72 51.54 447.52 28.75 Z" />
<path fill="#4d4d4c" opacity="1.00" d=" M 628.84 27.93 C 635.31 28.27 641.89 27.23 648.26 28.77 C 648.45 51.56 648.49 74.36 648.26 97.15 C 641.76 97.44 635.25 97.44 628.76 97.15 C 628.20 84.12 628.89 71.08 628.47 58.05 C 627.97 53.69 627.96 49.30 628.50 44.93 C 629.15 39.26 626.84 33.46 628.84 27.93 Z" />
<path fill="#4d4d4c" opacity="1.00" d=" M 72.76 67.80 C 122.17 67.49 171.59 67.76 221.00 67.67 C 237.48 67.76 253.98 67.47 270.46 67.82 C 270.01 74.63 266.87 81.28 261.88 85.93 C 257.22 89.22 251.88 92.21 246.04 92.35 C 194.36 92.30 142.68 92.34 91.00 92.34 C 86.81 92.24 82.51 92.85 78.41 91.77 C 75.10 89.80 72.78 85.94 72.72 82.06 C 72.55 77.31 72.06 72.53 72.76 67.80 Z" />
</g>
<g id="#dbdbdbff">
<path fill="#dbdbdb" opacity="1.00" d=" M 81.07 8.16 C 134.72 7.85 188.37 8.42 242.02 7.89 C 248.41 7.96 255.21 9.48 259.95 14.04 C 263.82 17.28 265.83 22.49 265.47 27.49 C 262.79 24.56 260.44 21.04 256.71 19.34 C 251.85 16.94 246.30 16.90 241.00 16.90 C 189.32 16.93 137.64 16.80 85.97 16.95 C 84.40 16.92 82.58 16.77 81.65 15.30 C 80.80 13.03 81.16 10.53 81.07 8.16 Z" />
<path fill="#dbdbdb" opacity="1.00" d=" M 1.03 26.70 C 1.35 28.85 1.70 30.99 2.03 33.13 C 11.54 33.92 21.15 32.35 30.57 34.25 C 30.60 37.14 30.64 40.04 30.83 42.94 L 31.70 43.24 C 35.38 43.60 39.08 43.42 42.77 43.18 C 42.78 38.74 42.90 34.30 42.82 29.86 C 43.22 31.28 43.67 32.69 44.12 34.09 C 49.07 34.48 54.05 34.52 59.00 34.10 C 59.30 31.97 59.61 29.85 59.90 27.72 C 60.30 44.82 59.96 61.94 60.17 79.05 C 60.02 80.32 60.54 82.45 58.75 82.77 C 55.85 83.23 52.91 83.02 49.99 83.04 C 35.31 82.99 20.63 83.02 5.95 83.04 C 3.71 82.99 0.24 83.26 0.82 79.98 C 0.86 62.22 0.64 44.45 1.03 26.70 M 31.77 57.02 L 31.81 57.90 C 30.22 59.92 30.75 62.63 30.62 65.01 C 30.72 67.07 30.39 69.40 31.82 71.11 L 31.78 71.99 C 35.38 71.81 38.98 71.80 42.57 71.60 C 42.56 66.71 43.32 61.74 42.16 56.92 C 38.70 57.12 35.23 57.22 31.77 57.02 Z" />
</g>
<g id="#fefefeff">
<path fill="#fefefe" opacity="1.00" d=" M 0.87 16.88 C 20.57 15.50 40.30 16.77 60.02 16.87 C 60.03 20.49 60.33 24.12 59.90 27.72 C 59.61 29.85 59.30 31.97 59.00 34.10 C 54.05 34.52 49.07 34.48 44.12 34.09 C 43.67 32.69 43.22 31.28 42.82 29.86 C 42.76 29.42 42.62 28.53 42.55 28.08 C 38.95 27.85 35.33 27.68 31.72 27.58 C 31.50 32.80 31.30 38.03 31.70 43.24 L 30.83 42.94 C 30.64 40.04 30.60 37.14 30.57 34.25 C 21.15 32.35 11.54 33.92 2.03 33.13 C 1.70 30.99 1.35 28.85 1.03 26.70 C 0.62 23.44 0.89 20.15 0.87 16.88 Z" />
</g>
<g id="#a2a2a2d6">
<path fill="#a2a2a2" opacity="0.84" d=" M 777.75 29.18 C 779.10 27.80 781.19 28.04 782.97 27.93 C 788.85 28.00 794.74 27.90 800.62 28.07 C 799.82 29.42 798.92 30.71 798.05 32.01 C 797.87 31.39 797.52 30.14 797.35 29.52 C 790.81 29.51 784.26 29.77 777.75 29.18 Z" />
</g>
</svg>
