<?xml version="1.0" encoding="UTF-8" ?>
<!DOCTYPE svg PUBLIC "-//W3C//DTD SVG 1.1//EN" "http://www.w3.org/Graphics/SVG/1.1/DTD/svg11.dtd">
<svg width="802pt" height="99pt" viewBox="0 0 802 99" version="1.1" xmlns="http://www.w3.org/2000/svg">
<g id="#fefefeff">
<path fill="#fefefe" opacity="1.00" d=" M 447.45 1.63 C 454.06 1.62 460.66 1.52 467.27 1.62 C 467.25 7.17 467.28 12.73 467.27 18.28 C 460.56 18.31 453.85 18.40 447.14 18.29 C 447.16 12.74 447.01 7.18 447.45 1.63 Z" />
<path fill="#fefefe" opacity="1.00" d=" M 480.77 2.64 C 487.25 2.63 493.75 1.67 500.21 2.55 C 500.16 34.07 500.23 65.59 500.13 97.11 C 493.65 97.18 487.18 97.20 480.70 97.12 C 480.66 65.63 480.78 34.13 480.77 2.64 Z" />
<path fill="#fefefe" opacity="1.00" d=" M 628.75 1.61 C 635.31 1.55 641.87 1.60 648.43 1.65 C 648.44 7.18 648.43 12.72 648.40 18.25 C 641.84 18.21 635.28 18.56 628.72 18.33 C 628.66 12.76 628.69 7.18 628.75 1.61 Z" />
<path fill="#fefefe" opacity="1.00" d=" M 733.31 2.41 C 739.60 1.76 745.94 2.26 752.26 2.13 C 752.39 19.39 752.24 36.65 752.26 53.91 C 753.99 53.88 755.74 53.85 757.49 53.81 C 763.46 44.74 771.01 36.88 777.87 28.50 C 784.63 28.62 791.39 28.65 798.16 28.71 C 798.13 29.49 798.07 31.05 798.04 31.82 C 791.60 39.14 785.42 46.68 779.14 54.13 C 777.68 55.96 776.05 57.70 775.06 59.83 C 783.77 72.27 792.53 84.71 801.53 96.95 C 794.12 97.08 786.66 97.56 779.28 96.81 C 775.45 92.83 772.84 87.84 769.55 83.42 C 766.35 79.15 764.03 74.13 760.04 70.49 C 757.21 72.42 754.61 74.78 752.56 77.52 C 751.89 84.02 752.57 90.60 752.27 97.12 C 745.79 97.19 739.31 97.19 732.83 97.15 C 732.67 67.76 732.88 38.36 732.77 8.97 C 732.78 6.77 732.78 4.55 733.31 2.41 Z" />
<path fill="#fefefe" opacity="1.00" d=" M 327.09 5.71 C 333.53 5.36 340.00 4.79 346.44 5.59 C 346.40 13.21 346.26 20.84 346.36 28.46 C 352.27 28.51 358.21 27.81 364.11 28.62 C 364.17 33.65 364.28 38.70 363.91 43.73 C 358.05 43.99 352.17 43.82 346.31 43.95 C 346.32 53.64 346.40 63.34 346.37 73.04 C 346.43 75.98 346.67 79.71 349.53 81.35 C 354.12 83.59 359.33 82.22 364.15 81.72 C 364.18 86.49 364.49 91.27 364.17 96.03 C 359.25 98.70 353.37 98.30 347.95 98.19 C 341.14 97.75 333.66 95.13 329.98 88.99 C 327.44 84.83 326.88 79.82 326.87 75.04 C 326.89 64.67 326.99 54.30 326.87 43.93 C 323.00 43.89 319.12 43.88 315.25 43.71 C 314.93 38.64 314.37 33.47 315.38 28.44 C 319.19 27.91 323.05 28.19 326.89 28.13 C 327.21 20.66 327.03 13.19 327.09 5.71 Z" />
<path fill="#fefefe" opacity="1.00" d=" M 583.78 5.69 C 590.17 5.57 596.58 5.54 602.98 5.73 C 603.20 13.19 603.06 20.65 603.15 28.11 C 609.02 28.24 614.89 28.11 620.77 28.31 C 620.96 33.44 620.96 38.58 620.73 43.70 C 614.86 43.93 608.99 43.83 603.13 43.91 C 603.17 53.96 603.05 64.02 603.14 74.07 C 603.11 76.79 603.80 80.09 606.53 81.34 C 611.19 83.35 616.28 81.85 621.11 81.50 C 621.16 86.42 621.19 91.34 621.24 96.27 C 613.19 98.52 604.47 99.15 596.39 96.75 C 588.90 94.33 583.88 86.80 583.75 79.04 C 583.61 67.38 583.78 55.71 583.69 44.05 C 579.73 43.90 575.77 43.90 571.82 43.88 C 571.77 38.69 571.72 33.49 572.12 28.31 C 575.99 28.16 579.86 28.16 583.73 28.09 C 583.74 20.63 583.70 13.16 583.78 5.69 Z" />
<path fill="#fefefe" opacity="1.00" d=" M 0.84 16.87 C 20.54 15.50 40.26 16.82 59.97 16.85 C 60.09 20.46 60.27 24.10 59.86 27.70 C 59.60 29.74 59.28 31.77 58.96 33.80 C 53.99 33.81 49.03 33.79 44.06 33.81 C 43.62 32.46 43.18 31.12 42.78 29.76 C 42.70 29.29 42.54 28.36 42.45 27.89 C 38.86 27.79 35.26 27.65 31.66 27.53 C 31.44 32.81 31.41 38.10 31.54 43.38 L 31.10 42.55 C 30.74 39.65 30.69 36.72 30.60 33.80 C 21.17 32.43 11.62 32.90 2.13 32.76 C 1.77 30.74 1.41 28.73 1.12 26.70 C 0.68 23.44 0.83 20.15 0.84 16.87 Z" />
<path fill="#fefefe" opacity="1.00" d=" M 373.27 38.66 C 384.40 28.69 400.28 25.37 414.77 27.97 C 421.23 29.03 427.66 31.97 431.41 37.57 C 437.07 45.55 435.69 55.79 435.82 65.00 C 436.12 75.68 435.00 86.49 436.97 97.07 C 431.16 96.91 425.26 97.73 419.53 96.60 C 418.52 94.77 417.89 92.76 417.18 90.81 C 412.81 94.00 408.18 97.17 402.68 97.86 C 394.10 98.90 384.36 98.38 377.42 92.61 C 368.00 85.40 368.20 68.87 377.99 62.06 C 384.79 56.84 393.70 56.00 401.99 55.84 C 406.36 55.69 411.13 56.38 415.07 54.02 C 417.62 50.44 416.07 44.69 411.75 43.30 C 402.50 40.19 391.77 42.63 384.74 49.42 C 380.91 45.83 377.18 42.15 373.27 38.66 M 404.98 68.24 C 400.84 68.29 396.19 67.98 392.74 70.71 C 388.60 73.97 389.49 81.55 394.64 83.34 C 401.76 86.16 410.79 83.56 415.11 77.16 C 417.10 74.27 416.66 70.60 416.85 67.28 C 412.94 68.04 408.96 68.35 404.98 68.24 Z" />
<path fill="#fefefe" opacity="1.00" d=" M 526.36 29.23 C 540.60 24.64 557.82 27.10 568.47 38.20 C 564.53 41.22 560.65 44.32 557.02 47.71 C 552.75 45.04 548.31 42.04 543.09 41.87 C 538.92 41.78 534.26 41.29 530.58 43.65 C 528.83 44.70 529.00 47.04 529.15 48.80 C 529.18 51.29 531.95 52.16 533.87 52.93 C 543.57 55.93 554.42 56.03 563.06 61.91 C 569.52 65.86 571.86 74.48 569.68 81.50 C 568.47 86.35 564.69 90.02 560.73 92.81 C 552.09 98.42 541.29 99.11 531.32 97.83 C 521.56 96.36 512.10 91.39 506.24 83.31 C 511.44 80.56 516.48 77.53 521.73 74.87 C 527.67 82.99 539.51 85.76 548.56 81.59 C 551.15 80.53 552.65 77.26 551.37 74.68 C 548.88 71.16 544.29 70.54 540.40 69.64 C 532.86 68.16 525.11 66.68 518.43 62.67 C 513.03 59.56 509.79 53.25 509.97 47.09 C 511.06 38.41 518.39 31.86 526.36 29.23 Z" />
<path fill="#fefefe" opacity="1.00" d=" M 659.32 48.49 C 664.68 36.11 677.55 27.49 691.03 27.13 C 701.60 26.78 713.26 29.17 720.56 37.42 C 722.05 39.31 724.52 41.29 724.34 43.83 C 719.54 46.43 714.44 48.46 709.66 51.10 C 706.85 47.59 703.48 44.04 698.80 43.35 C 692.89 42.55 685.95 43.05 681.57 47.58 C 676.05 53.50 674.98 62.45 677.07 70.03 C 678.62 75.94 683.48 80.99 689.52 82.28 C 693.95 83.18 698.78 82.96 702.87 80.89 C 705.77 79.36 707.53 76.47 709.99 74.39 C 715.23 76.30 720.00 79.31 724.98 81.80 C 719.42 90.47 710.10 96.51 699.93 98.05 C 691.99 98.78 683.56 98.52 676.35 94.71 C 666.27 89.88 658.37 80.14 656.94 68.91 C 656.23 62.07 656.41 54.85 659.32 48.49 Z" />
<path fill="#fefefe" opacity="1.00" d=" M 447.64 28.47 C 454.13 28.00 460.67 27.91 467.15 28.61 C 467.29 51.44 467.24 74.28 467.18 97.11 C 460.67 97.16 454.17 97.17 447.66 97.09 C 447.59 74.21 447.67 51.34 447.64 28.47 Z" />
<path fill="#fefefe" opacity="1.00" d=" M 628.62 28.15 C 635.15 28.25 641.70 27.92 648.21 28.58 C 648.33 51.42 648.22 74.26 648.30 97.10 C 641.77 97.20 635.24 97.19 628.72 97.11 C 628.54 84.73 628.77 72.34 628.67 59.96 C 628.55 55.55 628.05 51.13 628.53 46.72 C 629.09 40.53 627.75 34.32 628.62 28.15 Z" />
</g>
<g id="#6d6d6cff">
<path fill="#6d6d6c" opacity="1.00" d=" M 78.33 3.24 C 79.85 2.90 81.40 2.82 82.95 2.78 C 136.98 2.78 191.00 2.81 245.03 2.76 C 255.56 2.82 265.47 9.35 270.72 18.33 C 274.62 24.81 275.24 32.61 275.05 40.00 C 274.86 48.96 275.27 57.93 274.88 66.89 C 274.29 78.48 266.92 89.80 255.94 94.03 C 250.01 96.70 243.42 97.28 236.99 97.05 C 185.33 96.95 133.65 97.07 81.99 96.99 C 76.49 97.19 70.90 92.76 71.01 87.03 C 70.95 62.34 71.02 37.64 70.96 12.94 C 70.52 8.40 73.71 3.86 78.33 3.24 M 80.68 7.96 C 81.06 10.71 80.09 14.44 82.72 16.29 C 85.00 17.25 87.54 17.19 89.97 17.28 C 142.64 17.13 195.32 17.38 247.99 17.09 C 255.42 16.92 261.19 22.00 265.92 27.12 C 265.06 22.84 264.23 18.20 261.02 14.97 C 256.27 9.68 248.87 8.15 242.05 8.00 C 194.37 7.44 146.68 8.02 99.00 7.77 C 92.89 7.73 86.78 7.70 80.68 7.96 M 72.83 68.28 C 72.60 73.44 72.27 78.68 73.35 83.78 C 74.13 87.27 76.48 90.91 80.21 91.66 C 85.09 92.55 90.07 92.06 95.00 92.11 C 144.34 92.45 193.68 91.96 243.02 92.16 C 249.50 92.22 256.00 90.10 261.04 85.99 C 266.52 81.65 269.00 74.80 270.24 68.15 C 264.16 67.87 258.08 67.85 252.00 67.93 C 203.00 68.11 154.00 67.73 105.00 67.93 C 94.28 68.03 83.55 67.72 72.83 68.28 Z" />
<path fill="#6d6d6c" opacity="1.00" d=" M 31.75 71.01 C 31.26 66.64 31.25 62.23 31.74 57.86 C 31.84 62.25 31.85 66.63 31.75 71.01 Z" />
</g>
<g id="#dbdbdbff">
<path fill="#dbdbdb" opacity="1.00" d=" M 80.68 7.96 C 86.78 7.70 92.89 7.73 99.00 7.77 C 146.68 8.02 194.37 7.44 242.05 8.00 C 248.87 8.15 256.27 9.68 261.02 14.97 C 264.23 18.20 265.06 22.84 265.92 27.12 C 261.19 22.00 255.42 16.92 247.99 17.09 C 195.32 17.38 142.64 17.13 89.97 17.28 C 87.54 17.19 85.00 17.25 82.72 16.29 C 80.09 14.44 81.06 10.71 80.68 7.96 Z" />
<path fill="#dbdbdb" opacity="1.00" d=" M 1.12 26.70 C 1.41 28.73 1.77 30.74 2.13 32.76 C 11.62 32.90 21.17 32.43 30.60 33.80 C 30.69 36.72 30.74 39.65 31.10 42.55 L 31.54 43.38 C 35.29 43.56 39.05 43.48 42.80 43.39 C 42.82 38.84 42.91 34.30 42.78 29.76 C 43.18 31.12 43.62 32.46 44.06 33.81 C 49.03 33.79 53.99 33.81 58.96 33.80 C 59.28 31.77 59.60 29.74 59.86 27.70 C 60.37 36.13 59.71 44.57 60.06 53.00 C 59.98 62.91 60.35 72.82 59.86 82.72 C 40.28 82.91 20.69 82.99 1.11 82.68 C 0.52 72.46 0.99 62.22 0.86 52.00 C 0.96 43.57 0.67 35.12 1.12 26.70 M 31.73 56.87 L 31.74 57.86 C 31.25 62.23 31.26 66.64 31.75 71.01 L 31.73 71.89 C 35.35 71.87 38.97 71.84 42.59 71.72 C 42.62 66.95 43.08 62.15 42.54 57.40 C 38.99 56.64 35.33 56.92 31.73 56.87 Z" />
</g>
<g id="#a2a2a2d6">
<path fill="#a2a2a2" opacity="0.84" d=" M 777.87 28.50 C 785.44 27.60 793.09 28.05 800.70 28.07 C 799.82 29.33 798.94 30.58 798.04 31.82 C 798.07 31.05 798.13 29.49 798.16 28.71 C 791.39 28.65 784.63 28.62 777.87 28.50 Z" />
</g>
<g id="#4d4d4cff">
<path fill="#4d4d4c" opacity="1.00" d=" M 72.83 68.28 C 83.55 67.72 94.28 68.03 105.00 67.93 C 154.00 67.73 203.00 68.11 252.00 67.93 C 258.08 67.85 264.16 67.87 270.24 68.15 C 269.00 74.80 266.52 81.65 261.04 85.99 C 256.00 90.10 249.50 92.22 243.02 92.16 C 193.68 91.96 144.34 92.45 95.00 92.11 C 90.07 92.06 85.09 92.55 80.21 91.66 C 76.48 90.91 74.13 87.27 73.35 83.78 C 72.27 78.68 72.60 73.44 72.83 68.28 Z" />
</g>
</svg>
